<svg width="42" height="42" viewBox="0 0 42 42" fill="none" xmlns="http://www.w3.org/2000/svg"><rect width="41.662" height="41.662" rx="8" fill="#F57D5A"/><path d="M5.924 30.174a.45.45 0 0 0 .182.272c.061.042.547.363 1.581.651 1.69 7.236 6.525 7.585 12.226 7.585.3 0 .602 0 .906-.002l.934-.002c.935 0 1.882-.09 2.813-.27a.457.457 0 0 0 .36-.36.447.447 0 0 0-.002-.178 9.392 9.392 0 0 1-.226-2.025c0-1.51.37-3 1.066-4.332.255.055.515.085.776.087 2.081 0 3.775-1.677 3.775-3.74 0-.204-.022-.404-.053-.6a9.518 9.518 0 0 1 3.968-.858c.48 0 .989.045 1.554.137a.46.46 0 0 0 .464-.214.447.447 0 0 0 .06-.168c.097-.688.147-1.376.147-2.044 0-13.476-14.34-21.376-14.485-21.454a.459.459 0 0 0-.45.008c-.39.231-9.36 5.608-12.837 14.629a9.677 9.677 0 0 1-.773-1.241.45.45 0 0 0-.366-.245.458.458 0 0 0-.402.18c-.137.18-3.321 4.523-1.218 14.184Zm17.865 5.672c0 .58.053 1.17.156 1.758-.725.116-1.459.174-2.193.175l-.937.002c-5.807.022-10.428.031-12.138-6.457.796.145 1.796.25 3.028.25 2.65-.001 6.379-.485 11.45-2.075.006.014.005.029.012.042a3.741 3.741 0 0 0 1.726 1.681 10.269 10.269 0 0 0-1.104 4.624ZM26.54 30.7a2.87 2.87 0 0 1-1.463-.398 2.835 2.835 0 0 1-1.05-1.084 73.515 73.515 0 0 0 2.672-.936.453.453 0 0 0 .296-.432.448.448 0 0 0-.316-.418l-2.686-.857c.238-.467.602-.86 1.052-1.134.45-.274.967-.42 1.495-.42 1.58 0 2.866 1.274 2.866 2.84 0 1.566-1.286 2.839-2.866 2.839ZM21.762 3.58c1.81 1.058 13.783 8.514 13.783 20.533 0 .482-.028.975-.082 1.471a9.85 9.85 0 0 0-1.234-.081c-1.473 0-2.89.3-4.221.884a3.78 3.78 0 0 0-3.468-2.265c-.72 0-1.426.205-2.032.59a3.735 3.735 0 0 0-1.388 1.585l-.295-.095c-.196-.065-9.188-3.122-13.48-8.074C12.278 9.88 20.316 4.494 21.761 3.58ZM7.499 17.167c3.791 6.095 14.566 9.733 15.04 9.89l.004.002 2.599.83C12.653 32.284 7.639 30.238 6.771 29.79c-1.498-7.075-.015-11.149.728-12.623Z" fill="#fff"/><path d="m8.094 28.695.036-.001a.458.458 0 0 0 .397-.31.447.447 0 0 0 .02-.174c-.349-4.421-.004-7.81 0-7.844a.448.448 0 0 0-.405-.494.458.458 0 0 0-.334.098.449.449 0 0 0-.166.303c-.003.035-.357 3.499 0 8.007a.449.449 0 0 0 .452.415Zm2.117.778a.458.458 0 0 0 .431-.307.447.447 0 0 0 .022-.185c-.348-3.725-.005-6.58-.002-6.608a.444.444 0 0 0-.227-.447.458.458 0 0 0-.619.17.448.448 0 0 0-.055.168c-.015.12-.36 2.973-.002 6.8a.449.449 0 0 0 .452.409Zm2.027 0h.025a.46.46 0 0 0 .404-.3.448.448 0 0 0 .025-.175c-.155-2.849-.002-4.953 0-4.974a.447.447 0 0 0-.114-.32.456.456 0 0 0-.793.254c-.007.087-.16 2.178 0 5.09a.456.456 0 0 0 .453.425Zm2.33 0a.457.457 0 0 0 .43-.303.445.445 0 0 0 .023-.183 20.944 20.944 0 0 1 0-3.403.446.446 0 0 0-.237-.442.458.458 0 0 0-.668.35c-.006.063-.16 1.571 0 3.566a.449.449 0 0 0 .452.415Zm2.278-.227a.457.457 0 0 0 .432-.311.447.447 0 0 0 .02-.187c-.148-1.37-.003-2.432-.002-2.443a.445.445 0 0 0-.22-.45.457.457 0 0 0-.68.325c-.007.047-.162 1.178-.002 2.664a.449.449 0 0 0 .452.402Zm2.491-.353a.458.458 0 0 0 .443-.345.446.446 0 0 0 .002-.2c-.127-.587-.01-1.046-.006-1.061a.447.447 0 0 0-.315-.554.459.459 0 0 0-.56.312 3.334 3.334 0 0 0-.007 1.492.453.453 0 0 0 .443.356Zm-7.326-10.606a.459.459 0 0 0 .583-.267c.014-.037 1.413-3.735 4.879-7.386a.452.452 0 0 0 .093-.5.45.45 0 0 0-.436-.267.458.458 0 0 0-.32.15c-3.6 3.793-5.01 7.535-5.07 7.693a.446.446 0 0 0 .27.577Zm6.722-9.256a.455.455 0 0 0 .305-.117c.012-.012 1.275-1.145 2.52-2.053a.45.45 0 0 0-.202-.808.458.458 0 0 0-.338.083c-1.282.935-2.539 2.064-2.592 2.11a.45.45 0 0 0 .307.785Z" fill="#fff"/></svg>